<?xml version="1.0" encoding="utf-8"?>
<!-- Generator: Adobe Illustrator 22.1.0, SVG Export Plug-In . SVG Version: 6.00 Build 0)  -->
<svg version="1.1" id="Layer_1" xmlns="http://www.w3.org/2000/svg" xmlns:xlink="http://www.w3.org/1999/xlink" x="0px" y="0px"
	 viewBox="0 0 1000 1000" style="enable-background:new 0 0 1000 1000;" xml:space="preserve">
<style type="text/css">
	.st0{stroke:#FFFFFF;stroke-width:25;stroke-miterlimit:10;}
	.st1{fill:url(#SVGID_1_);}
</style>
<path class="st0" d="M927.5,975h-855C46.4,975,25,953.6,25,927.5v-855C25,46.4,46.4,25,72.5,25h855c26.1,0,47.5,21.4,47.5,47.5v855
	C975,953.6,953.6,975,927.5,975z"/>
<g>
	<g>
		<linearGradient id="SVGID_1_" gradientUnits="userSpaceOnUse" x1="297.9813" y1="713.0353" x2="714.2718" y2="296.7449">
			<stop  offset="0" style="stop-color:#00A994"/>
			<stop  offset="0" style="stop-color:#3C3695"/>
			<stop  offset="0.5056" style="stop-color:#A53594"/>
			<stop  offset="1" style="stop-color:#DA2027"/>
		</linearGradient>
		<path class="st1" d="M495.4,532.8c-68.3-19.6-118.1-43.8-149.2-72.4c-31.1-28.6-46.7-64-46.7-106c0-47.6,19-87,57.1-118.1
			c38-31.1,87.5-46.7,148.4-46.7c41.5,0,78.5,8,111,24.1c32.5,16.1,57.7,38.2,75.5,66.4c17.8,28.2,26.8,59.1,26.8,92.6h-80.1
			c0-36.7-11.6-65.5-34.9-86.4c-23.2-21-56-31.4-98.4-31.4c-39.3,0-69.9,8.7-91.9,26c-22,17.3-33,41.4-33,72.1
			c0,24.7,10.4,45.5,31.3,62.6c20.9,17,56.4,32.6,106.7,46.8c50.2,14.1,89.5,29.7,117.9,46.7c28.4,17,49.4,36.9,63.1,59.6
			c13.7,22.7,20.5,49.4,20.5,80.1c0,49-19.1,88.2-57.3,117.7s-89.2,44.2-153.1,44.2c-41.5,0-80.2-8-116.2-23.9
			c-36-15.9-63.7-37.7-83.2-65.4c-19.5-27.7-29.3-59.1-29.3-94.2h80.1c0,36.5,13.5,65.4,40.5,86.5c27,21.2,63,31.8,108.1,31.8
			c42.1,0,74.3-8.6,96.7-25.7c22.4-17.2,33.6-40.5,33.6-70.1c0-29.6-10.4-52.5-31.1-68.7S549.9,548.6,495.4,532.8z"/>
	</g>
</g>
</svg>
